<?xml version="1.0" standalone="no"?>
<!DOCTYPE svg PUBLIC "-//W3C//DTD SVG 20010904//EN"
 "http://www.w3.org/TR/2001/REC-SVG-20010904/DTD/svg10.dtd">
<svg version="1.0" xmlns="http://www.w3.org/2000/svg"
 width="50.000000pt" height="50.000000pt" viewBox="0 0 50.000000 50.000000"
 preserveAspectRatio="xMidYMid meet">

<g transform="translate(0.000000,50.000000) scale(0.100000,-0.100000)"
fill="#000000" stroke="none">
<path d="M95 427 c-84 -83 -87 -210 -8 -298 19 -21 40 -39 45 -39 6 0 26 -14
45 -30 101 -89 292 34 293 189 0 36 -6 49 -34 77 -29 29 -41 34 -83 34 -45 0
-49 2 -70 39 -24 41 -73 71 -118 71 -19 0 -41 -13 -70 -43z m124 9 c43 -23 82
-96 51 -96 -20 0 -94 -76 -111 -115 -10 -22 -19 -58 -19 -79 l0 -40 -30 29
c-61 59 -75 154 -35 239 19 39 66 76 98 76 10 0 31 -7 46 -14z m184 -107 c69
-31 58 -148 -20 -220 -128 -119 -280 -38 -204 109 48 93 151 144 224 111z"/>
<path d="M152 405 c-15 -33 -15 -67 0 -100 14 -31 32 -34 21 -2 -10 28 -9 87
1 110 5 10 4 17 -1 17 -6 0 -15 -11 -21 -25z"/>
<path d="M400 286 c0 -29 -42 -66 -96 -83 -62 -19 -104 -60 -104 -99 0 -13 5
-24 10 -24 6 0 10 8 10 19 0 33 38 68 99 90 34 12 69 33 81 48 21 27 27 63 10
63 -5 0 -10 -6 -10 -14z"/>
</g>
</svg>
